<?xml version="1.0" encoding="UTF-8"?>
<svg xmlns="http://www.w3.org/2000/svg" viewBox="0 0 64 48" width="64" height="48" role="img" aria-label="Płatność kartą przy odbiorze">
  <defs>
    <linearGradient id="cardBg" x1="0" y1="0" x2="1" y2="1">
      <stop offset="0%" stop-color="#2C5BFF"/>
      <stop offset="100%" stop-color="#1A357A"/>
    </linearGradient>
  </defs>
  <rect x="2" y="6" width="52" height="34" rx="4" ry="4" fill="url(#cardBg)" stroke="#0E1F4D" stroke-width="1"/>
  <rect x="2" y="13" width="52" height="7" fill="#0E1F4D"/>
  <rect x="7" y="26" width="12" height="8" rx="1" ry="1" fill="#F4C04E" stroke="#A8801F" stroke-width="0.5"/>
  <path d="M9 28 h8 M9 30 h8 M9 32 h8" stroke="#A8801F" stroke-width="0.4" fill="none"/>
  <text x="23" y="34" font-family="Arial, sans-serif" font-size="6" fill="#FFFFFF" font-weight="bold" letter-spacing="1">**** 1234</text>
  <g transform="translate(40,24)">
    <circle cx="8" cy="12" r="11" fill="#FFFFFF" stroke="#1A357A" stroke-width="1.2"/>
    <path d="M3.5 12 l3.5 3.5 l6.5 -7" fill="none" stroke="#1FA463" stroke-width="2.2" stroke-linecap="round" stroke-linejoin="round"/>
  </g>
  <g transform="translate(48,2)" fill="#1FA463">
    <path d="M0 6 a6 6 0 1 1 12 0 a6 6 0 1 1 -12 0 z" fill="#1FA463"/>
    <path d="M3 8 l-1 -1 l-1 1 l2 2 l4 -4 l-1 -1 z" fill="#FFFFFF" transform="translate(2,0)"/>
  </g>
</svg>
